# xmcd
#
# Track frame offsets:
#	150
#	19765
#	38905
#	56940
#	75810
#	97418
#	119450
#	136795
#	158665
#	175035
#	196370
#
# Disc length: 2859 seconds
# Revision: 0
# Processed by: cddbd v1.5.2PL0 Copyright (c) Steve Scherf et al.
# Submitted via: dBpowerAMP V12.0
#
DISCID=8a0b290b
DTITLE=張學友 - 不後悔 [dBS]
DYEAR=1998
DGENRE=Chinese Pop
TTITLE0=不後悔
TTITLE1=深海
TTITLE2=紅色
TTITLE3=別提你的心
TTITLE4=你最珍貴 (張學友 and 高慧君)
TTITLE5=離開你七天
TTITLE6=回家的路彷彿太遠
TTITLE7=離人
TTITLE8=放過我
TTITLE9=冷樹葉
TTITLE10=甲乙丙丁
EXTD=
EXTT0=
EXTT1=
EXTT2=
EXTT3=
EXTT4=
EXTT5=
EXTT6=
EXTT7=
EXTT8=
EXTT9=
EXTT10=
PLAYORDER=
